<svg width="879" height="316" viewBox="0 0 879 316" fill="none" xmlns="http://www.w3.org/2000/svg">
<path d="M840.816 8.66434C813.552 16.1523 764.208 29.5923 643.056 62.4243C618.288 69.1443 572.016 81.6243 540.336 90.2643C484.848 105.24 432.816 119.448 278.448 161.304C230.832 174.168 201.84 181.08 192.048 181.848C148.848 185.112 112.368 166.872 97.0077 134.424C91.8237 123.288 91.0557 119.64 90.4797 100.632C89.5197 75.8643 93.3597 57.8163 104.304 32.2803C107.952 24.0243 109.68 18.0723 108.336 19.2243C102.576 24.0243 71.2797 65.6883 54.9597 90.2643C7.53566 161.688 -8.97634 218.52 5.80766 258.264C11.3757 273.432 29.8077 292.056 49.0077 302.04C87.9837 322.2 132.912 320.28 198.96 295.512C228.912 284.376 384.624 217.56 667.056 95.0643C775.92 47.8323 867.504 8.08834 870.96 6.55234C878.64 3.28834 880.752 0.024345 874.992 0.216345C872.496 0.216345 857.136 4.05634 840.816 8.66434Z" fill="black"/>
</svg>
